<svg width="100%" height="100%" id="svg" viewBox="0 0 1440 490" xmlns="http://www.w3.org/2000/svg" class="transition duration-300 ease-in-out delay-150"><defs><linearGradient id="gradient" x1="50%" y1="100%" x2="50%" y2="0%"><stop offset="5%" stop-color="#8ce4ff"></stop><stop offset="95%" stop-color="#2a7b9b"></stop></linearGradient></defs><path d="M 0,500 L 0,75 C 46.749023850800114,63.67733864098782 93.49804770160023,52.35467728197564 138,60 C 182.50195229839977,67.64532271802436 224.75683304439912,94.25862951308527 264,91 C 303.2431669556009,87.74137048691473 339.47462012080337,54.61080466568328 378,47 C 416.52537987919663,39.38919533431672 457.34468647238725,57.29815182418157 499,64 C 540.6553135276127,70.70184817581843 583.1466339896479,66.19658803759037 638,65 C 692.8533660103521,63.80341196240962 760.0687775690211,65.9154960254569 800,58 C 839.9312224309789,50.0845039745431 852.5782557342679,32.141427860582 898,44 C 943.4217442657321,55.858572139418 1021.6181994939075,97.51879253221513 1071,107 C 1120.3818005060925,116.48120746778487 1140.948946290102,93.78340201055747 1175,84 C 1209.051053709898,74.21659798944253 1256.5860153456852,77.34759942555502 1303,78 C 1349.4139846543148,78.65240057444498 1394.7069923271574,76.82620028722249 1440,75 L 1440,500 L 0,500 Z" stroke="none" stroke-width="0" fill="url(#gradient)" fill-opacity="0.265" class="transition-all duration-300 ease-in-out delay-150 path-0"></path><defs><linearGradient id="gradient" x1="50%" y1="100%" x2="50%" y2="0%"><stop offset="5%" stop-color="#8ce4ff"></stop><stop offset="95%" stop-color="#2a7b9b"></stop></linearGradient></defs><path d="M 0,500 L 0,175 C 41.01531204014739,181.19250281998657 82.03062408029479,187.38500563997314 131,174 C 179.96937591970521,160.61499436002686 236.89281571896822,127.65248026009394 276,139 C 315.1071842810318,150.34751973990606 336.3981130438325,206.00507331965102 375,211 C 413.6018869561675,215.99492668034898 469.51473210570214,170.32722646130202 523,155 C 576.4852678942979,139.67277353869798 627.5429585333591,154.68602083514102 672,162 C 716.4570414666409,169.31397916485898 754.3134337608615,168.92869019813395 794,165 C 833.6865662391385,161.07130980186605 875.2033064231946,153.59921837232326 917,160 C 958.7966935768054,166.40078162767674 1000.8733405463602,186.67443631257316 1051,189 C 1101.1266594536398,191.32556368742684 1159.3033313913645,175.70303637738414 1200,173 C 1240.6966686086355,170.29696362261586 1263.9133338881818,180.51341817789026 1301,183 C 1338.0866661118182,185.48658182210974 1389.043333055909,180.24329091105488 1440,175 L 1440,500 L 0,500 Z" stroke="none" stroke-width="0" fill="url(#gradient)" fill-opacity="0.4" class="transition-all duration-300 ease-in-out delay-150 path-1"></path><defs><linearGradient id="gradient" x1="50%" y1="100%" x2="50%" y2="0%"><stop offset="5%" stop-color="#8ce4ff"></stop><stop offset="95%" stop-color="#2a7b9b"></stop></linearGradient></defs><path d="M 0,500 L 0,275 C 44.33257602453611,255.84006027776647 88.66515204907222,236.68012055553294 139,247 C 189.33484795092778,257.31987944446706 245.67196782824732,297.1195780556348 280,300 C 314.3280321717527,302.8804219443652 326.6469766379385,268.8415672219281 370,266 C 413.3530233620615,263.1584327780719 487.7401256199986,291.51415305665296 542,300 C 596.2598743800014,308.48584694334704 630.392520882067,297.1018205514601 662,297 C 693.607479117933,296.8981794485399 722.6897908517334,308.07856473750667 764,304 C 805.3102091482666,299.92143526249333 858.8483157109996,280.5839204985134 907,279 C 955.1516842890004,277.4160795014866 997.9169463042681,293.5857532684397 1039,287 C 1080.083053695732,280.4142467315603 1119.483899071928,251.07306642772778 1160,252 C 1200.516100928072,252.92693357227222 1242.1474574080207,284.12198102064923 1289,293 C 1335.8525425919793,301.87801897935077 1387.9262712959896,288.4390094896754 1440,275 L 1440,500 L 0,500 Z" stroke="none" stroke-width="0" fill="url(#gradient)" fill-opacity="0.53" class="transition-all duration-300 ease-in-out delay-150 path-2"></path><defs><linearGradient id="gradient" x1="50%" y1="100%" x2="50%" y2="0%"><stop offset="5%" stop-color="#8ce4ff"></stop><stop offset="95%" stop-color="#2a7b9b"></stop></linearGradient></defs><path d="M 0,500 L 0,375 C 33.51800807127084,362.3415415454412 67.03601614254168,349.6830830908824 106,356 C 144.96398385745832,362.3169169091176 189.37394350110407,387.6092091819117 240,384 C 290.62605649889593,380.3907908180883 347.468209853042,347.8800801814708 396,340 C 444.531790146958,332.1199198185292 484.7532170867281,348.8704700922051 532,352 C 579.2467829132719,355.1295299077949 633.5189218000456,344.63803944970863 672,354 C 710.4810781999544,363.36196055029137 733.1710957130891,392.57737210896033 777,406 C 820.8289042869109,419.42262789103967 885.7966953475978,417.0524721144499 930,410 C 974.2033046524022,402.9475278855501 997.64212289652,391.21273943324024 1036,381 C 1074.35787710348,370.78726056675976 1127.6348130663216,362.0965701525891 1175,355 C 1222.3651869336784,347.9034298474109 1263.818624838194,342.40097995640315 1307,346 C 1350.181375161806,349.59902004359685 1395.090687580903,362.2995100217984 1440,375 L 1440,500 L 0,500 Z" stroke="none" stroke-width="0" fill="url(#gradient)" fill-opacity="1" class="transition-all duration-300 ease-in-out delay-150 path-3"></path></svg>